<svg width="37" height="25" viewBox="0 0 37 25" fill="none"
  xmlns="http://www.w3.org/2000/svg">
  <path fill-rule="evenodd" clip-rule="evenodd" d="M18.1376 18.1034C15.7947 18.455 13.4985 19.0195 11.2756 19.8064C9.16613 20.5576 7.11283 21.5001 5.21871 22.7976C5.05384 22.9111 5.02046 23.1309 5.14186 23.2855L6.37867 24.8613C6.44968 24.953 6.55845 25 6.6685 25H6.6707C6.7417 25 6.81267 24.9805 6.87695 24.9404C8.49729 23.9016 10.3629 23.0955 12.2845 22.4747C14.3264 21.8162 16.4507 21.3558 18.5923 21.0959C20.7338 20.837 22.896 20.7764 25.0111 20.9584C26.9981 21.1302 28.9483 21.5219 30.7428 22.1908C30.9307 22.2605 31.1414 22.1769 31.2183 21.9984L32.2751 19.4938C32.352 19.3128 32.2558 19.1056 32.0622 19.0391C29.8474 18.2775 27.5466 17.8905 25.2688 17.7553C24.6459 17.7199 24.0253 17.7026 23.4044 17.7026C21.6317 17.7026 19.8714 17.8457 18.1376 18.1034M4.01162 2.85619C2.18505 3.36114 0.931128 4.90831 0.816432 6.79916C0.638924 9.76295 3.17787 11.0592 5.23118 11.6937C5.8634 11.8885 6.50358 12.1061 7.07625 12.4426C7.54335 12.7176 7.97409 13.1503 8.07942 13.7C8.18825 14.2635 7.92487 14.9003 7.38535 15.1396C6.36835 15.5909 5.48212 14.6198 5.34241 13.6783C5.32634 13.5662 5.22547 13.4906 5.10997 13.5044L2.56287 13.8365C2.44496 13.8513 2.36035 13.9567 2.37519 14.0699C2.51025 15.198 3.139 16.7051 4.49604 17.556C5.13744 17.9568 5.8555 18.1595 6.61932 18.1595C7.07974 18.1595 7.55496 18.0841 8.04159 17.9385C9.97474 17.3626 11.081 15.7135 11.0568 13.6943C11.0444 12.5102 10.5484 11.4132 9.68843 10.6035C8.67262 9.64602 7.33148 9.30133 5.96879 8.88566C5.09393 8.61885 4.05982 8.14705 3.80318 7.18271C3.61875 6.4921 4.01957 5.76162 4.67133 5.63676C5.32168 5.51311 5.84961 5.93448 6.04666 6.5047C6.1577 6.83008 6.23682 7.17925 6.28722 7.48165C6.29637 7.53778 6.32486 7.58353 6.36959 7.61566C6.41536 7.64759 6.47268 7.6602 6.52761 7.65003L9.06087 7.2067C9.17757 7.18616 9.25791 7.07737 9.2394 6.9641C8.93376 5.05027 8.25229 3.85246 7.09335 3.19277C6.50806 2.85966 5.86467 2.69128 5.19011 2.69128C4.80414 2.69128 4.41023 2.74619 4.01163 2.85621M19.4338 0.217658L16.7759 0.53593C16.7082 0.544059 16.6533 0.584119 16.6293 0.643703L14.664 7.18969C14.6239 7.28589 14.4706 7.2686 14.4533 7.16672L13.4501 1.08907C13.441 1.03293 13.3849 0.994089 13.3253 1.00202L10.7005 1.43842C10.641 1.44636 10.5999 1.49802 10.609 1.55293L12.8525 15.7581C12.8616 15.8211 12.9269 15.8624 12.9887 15.8417C13.3952 15.7101 14.813 15.2633 15.6409 15.1293C15.6822 15.1226 15.7085 15.0836 15.7028 15.0413L15.1061 11.4074C15.1027 11.38 15.1382 11.3639 15.1553 11.3869L17.8639 14.7309C17.8867 14.7618 17.9232 14.7789 17.9623 14.7745C18.9642 14.66 20.1061 14.542 21.1345 14.456C21.202 14.4503 21.2307 14.3781 21.1871 14.322L16.8835 9.01282C16.8629 8.9866 16.8572 8.94978 16.8699 8.92132L19.664 0.486688C19.7157 0.364271 19.5977 0.216431 19.458 0.216431C19.4499 0.216431 19.4419 0.216431 19.4338 0.217643M24.4753 0.0195127L21.8527 0.0400506C21.745 0.0447324 21.6579 0.131755 21.6592 0.234671L21.7358 14.3345C21.7358 14.3872 21.7862 14.4331 21.8412 14.4297C22.738 14.3805 23.7458 14.3575 24.5542 14.4307C24.6081 14.4354 24.6551 14.3988 24.6551 14.3471L24.5851 0.117929C24.5841 0.0630202 24.5371 0.0195127 24.4787 0.0195127H24.4753ZM29.9906 8.63148L29.9711 8.63025L30.4842 3.10696L30.5196 3.11042C31.3659 3.13442 32.1285 3.48378 32.6634 4.09062C33.1673 4.6586 33.4148 5.40656 33.3461 6.14071C33.188 7.80114 32.1194 8.63492 30.183 8.63492C30.12 8.63492 30.0559 8.6337 29.9906 8.63147M28.0105 0C27.9635 0 27.9177 0.0170833 27.8811 0.0479848C27.8376 0.0823484 27.8112 0.132788 27.8067 0.187704L26.4358 14.3128C26.4302 14.3667 26.4472 14.4216 26.4828 14.4628C26.5172 14.5064 26.5674 14.5316 26.6201 14.5373L29.1476 14.8248H29.1499C29.1556 14.8258 29.1625 14.8258 29.1694 14.8258C29.2747 14.8258 29.364 14.7457 29.3744 14.6404L29.6973 11.4509L29.7248 11.4521C33.095 11.7671 35.8654 9.59458 36.1666 6.4075C36.3075 4.913 35.8664 3.46995 34.9251 2.34416C33.93 1.15773 32.4504 0.507378 30.7796 0.288568C29.2644 0.089265 28.0322 0.0012197 28.0322 0.0012197C28.0241 7.5758e-06 28.0174 7.57575e-06 28.0104 7.57575e-06" fill="#0284C7"/>
</svg>
